<?xml version="1.0" encoding="utf-8"?>
<svg version="1.1" id="Calque_1" xmlns="http://www.w3.org/2000/svg" xmlns:xlink="http://www.w3.org/1999/xlink" x="0px" y="0px" viewBox="0 0 200 40" enable-background="new 0 0 200 40" xml:space="preserve">
	<g>
		<path fill="#787878" d="M17.1,23.4H6.2v14.8H4.3V2.5h11.6c6.7,0,10,3.6,10,10.2c0,6.9-3.1,9.4-6.8,10.4l7.8,15h-2.1L17.1,23.4zM15.9,4.2H6.2v17.5h9.7c5.6,0,8.1-3.1,8.1-9C24,7.2,21.5,4.2,15.9,4.2z" />
		<path fill="#787878" d="M33.3,2.5h19.2v1.7H35.1v14.8h14.5v1.7H35.1v15.8h17.4v1.7H33.3V2.5z" />
		<path fill="#787878" d="M66.8,2.5h4.6l10.4,35.7H80l-3.2-11H61.5l-3.2,11h-1.8L66.8,2.5z M61.9,25.6h14.3L70.1,4.3h-1.9L61.9,25.6z" />
		<path fill="#787878" d="M106.1,37.7c0,0-4.8,1-8.7,1c-9.7,0-11.7-7-11.7-18.2c0-10.6,1.9-18.5,11.7-18.5c4.6,0,8.7,1,8.7,1l-0.2,1.7c0,0-4.6-1-8.5-1c-8.6,0-9.8,7.2-9.8,16.7S89,37,97.4,37c3.4,0,8.5-1,8.5-1L106.1,37.7z" />
		<path fill="#787878" d="M108.9,2.5H132v1.7h-10.5v34h-1.8v-34h-10.8V2.5z" />
		<path fill="#787878" d="M137.1,2.5h1.8v35.7h-1.8V2.5z" />
		<path fill="#787878" d="M169,2.5l-9.2,35.7h-5.7l-9.4-35.7h1.8l9.1,34h2.7l8.9-34H169z" />
		<path fill="#787878" d="M174.9,2.5h19.2v1.7h-17.4v14.8h14.5v1.7h-14.5v15.8h17.4v1.7h-19.2V2.5z" />
	</g>
</svg>
